HIERARCHY
ROOT hips
{
  OFFSET 0 11.86390953 0.3628582958
  CHANNELS 6 Xposition Yposition Zposition Yrotation Xrotation Zrotation
  JOINT spine
  {
    OFFSET 0 0.05383551117999996 0
    CHANNELS 3 Yrotation Xrotation Zrotation
    JOINT chest
    {
      OFFSET 0 0.6394558760401424 0
      CHANNELS 3 Yrotation Xrotation Zrotation
      JOINT neck
      {
        OFFSET 0 2.720089088562982 0
        CHANNELS 3 Yrotation Xrotation Zrotation
        JOINT head
        {
          OFFSET 0 0.37880844870545777 0
          CHANNELS 3 Yrotation Xrotation Zrotation
          JOINT rightEye
          {
            OFFSET -0.42867780714 0.7547055649100001 0.7381831347
            CHANNELS 3 Yrotation Xrotation Zrotation
            End Site
            {
              OFFSET -0.42867780714 0.7547055649100001 0.7381831347
            }
          }
          JOINT leftEye
          {
            OFFSET 0.428676479 0.7547055559999993 0.7381844503
            CHANNELS 3 Yrotation Xrotation Zrotation
            End Site
            {
              OFFSET 0.428676479 0.7547055559999993 0.7381844503
            }
          }
          JOINT jaw
          {
            OFFSET -0.18933892286100001 1.5626303011000007 1.137441874206
            CHANNELS 3 Yrotation Xrotation Zrotation
            End Site
            {
              OFFSET -0.18933892286100001 1.5626303011000007 1.137441874206
            }
          }
        }
      }
      JOINT rightShoulder
      {
        OFFSET -0.6795351508 2.0665205 0
        CHANNELS 3 Yrotation Xrotation Zrotation
        JOINT rightUpperArm
        {
          OFFSET -0.7287400483531672 0 0
          CHANNELS 3 Yrotation Xrotation Zrotation
          JOINT rightLowerArm
          {
            OFFSET -1.9872982039174532 0 0
            CHANNELS 3 Yrotation Xrotation Zrotation
            JOINT rightHand
            {
              OFFSET -2.6451847532219275 0 0
              CHANNELS 3 Yrotation Xrotation Zrotation
              JOINT rightLittleProximal
              {
                OFFSET -0.8008804099999995 -0.09592044000000044 -0.26183688629999996
                CHANNELS 3 Yrotation Xrotation Zrotation
                JOINT rightLittleIntermediate
                {
                  OFFSET -0.2473955153999997 -0.02541697026000067 0.002370178700999967
                  CHANNELS 3 Yrotation Xrotation Zrotation
                  JOINT rightLittleDistal
                  {
                    OFFSET -0.163687229200001 -0.015790700860001117 -0.0004274845300000635
                    CHANNELS 3 Yrotation Xrotation Zrotation
                    End Site
                    {
                      OFFSET -0.163687229200001 -0.015790700860001117 -0.0004274845300000635
                    }
                  }
                }
              }
              JOINT rightRingProximal
              {
                OFFSET -0.8393382799999985 -0.06223833561000025 -0.09213143500000005
                CHANNELS 3 Yrotation Xrotation Zrotation
                JOINT rightRingIntermediate
                {
                  OFFSET -0.3284497260000011 -0.03264224524000103 0.009408593183000052
                  CHANNELS 3 Yrotation Xrotation Zrotation
                  JOINT rightRingDistal
                  {
                    OFFSET -0.19447660429999902 -0.021730899850000318 0.003074347969000052
                    CHANNELS 3 Yrotation Xrotation Zrotation
                    End Site
                    {
                      OFFSET -0.19447660429999902 -0.021730899850000318 0.003074347969000052
                    }
                  }
                }
              }
              JOINT rightMiddleProximal
              {
                OFFSET -0.8473005199999989 -0.06735503500000095 0.10541820299999995
                CHANNELS 3 Yrotation Xrotation Zrotation
                JOINT rightMiddleIntermediate
                {
                  OFFSET -0.3450455799999995 -0.02481901642000084 0.019012570390000032
                  CHANNELS 3 Yrotation Xrotation Zrotation
                  JOINT rightMiddleDistal
                  {
                    OFFSET -0.23542332000000088 -0.025003910029999243 0.0075583457949999905
                    CHANNELS 3 Yrotation Xrotation Zrotation
                    End Site
                    {
                      OFFSET -0.23542332000000088 -0.025003910029999243 0.0075583457949999905
                    }
                  }
                }
              }
              JOINT rightIndexProximal
              {
                OFFSET -0.8008568281999987 -0.09897839600000169 0.29462796
                CHANNELS 3 Yrotation Xrotation Zrotation
                JOINT rightIndexIntermediate
                {
                  OFFSET -0.30524754480000016 -0.024634122809999992 0.02743375304999998
                  CHANNELS 3 Yrotation Xrotation Zrotation
                  JOINT rightIndexDistal
                  {
                    OFFSET -0.23067378950000017 -0.016876459159999913 0.008484125099999983
                    CHANNELS 3 Yrotation Xrotation Zrotation
                    End Site
                    {
                      OFFSET -0.23067378950000017 -0.016876459159999913 0.008484125099999983
                    }
                  }
                }
              }
              JOINT rightThumbProximal
              {
                OFFSET -0.25574064999999935 -0.12833189930000155 0.22385698609999993
                CHANNELS 3 Yrotation Xrotation Zrotation
                JOINT rightThumbIntermediate
                {
                  OFFSET -0.22791743260000086 -0.07103586192999978 0.27385039
                  CHANNELS 3 Yrotation Xrotation Zrotation
                  JOINT rightThumbDistal
                  {
                    OFFSET -0.13610267659999975 -0.03369390969999997 0.14246511509999996
                    CHANNELS 3 Yrotation Xrotation Zrotation
                    End Site
                    {
                      OFFSET -0.13610267659999975 -0.03369390969999997 0.14246511509999996
                    }
                  }
                }
              }
            }
          }
        }
      }
      JOINT leftShoulder
      {
        OFFSET 0.6795338396 2.0665205 0
        CHANNELS 3 Yrotation Xrotation Zrotation
        JOINT leftUpperArm
        {
          OFFSET 0.7287383950230443 0 0
          CHANNELS 3 Yrotation Xrotation Zrotation
          JOINT leftLowerArm
          {
            OFFSET 1.9872997282019604 0 0
            CHANNELS 3 Yrotation Xrotation Zrotation
            JOINT leftHand
            {
              OFFSET 2.6451820781302327 0 0
              CHANNELS 3 Yrotation Xrotation Zrotation
              JOINT leftLittleProximal
              {
                OFFSET 0.8008804099999995 -0.09592306899999814 -0.2618342639000001
                CHANNELS 3 Yrotation Xrotation Zrotation
                JOINT leftLittleIntermediate
                {
                  OFFSET 0.2473981400000007 -0.02542352681000093 0.0023609995859999455
                  CHANNELS 3 Yrotation Xrotation Zrotation
                  JOINT leftLittleDistal
                  {
                    OFFSET 0.1636846068000002 -0.015794634789999318 -0.00043272972159996703
                    CHANNELS 3 Yrotation Xrotation Zrotation
                    End Site
                    {
                      OFFSET 0.1636846068000002 -0.015794634789999318 -0.00043272972159996703
                    }
                  }
                }
              }
              JOINT leftRingProximal
              {
                OFFSET 0.8393409199999996 -0.062242267999998324 -0.0921281570000001
                CHANNELS 3 Yrotation Xrotation Zrotation
                JOINT leftRingIntermediate
                {
                  OFFSET 0.3284471036000003 -0.03264224524000103 0.009405970574000042
                  CHANNELS 3 Yrotation Xrotation Zrotation
                  JOINT leftRingDistal
                  {
                    OFFSET 0.1944779099999996 -0.021732211159998904 0.003073036670000001
                    CHANNELS 3 Yrotation Xrotation Zrotation
                    End Site
                    {
                      OFFSET 0.1944779099999996 -0.021732211159998904 0.003073036670000001
                    }
                  }
                }
              }
              JOINT leftMiddleProximal
              {
                OFFSET 0.8473005200000001 -0.06736028199999788 0.1054214809999999
                CHANNELS 3 Yrotation Xrotation Zrotation
                JOINT leftMiddleIntermediate
                {
                  OFFSET 0.3450455799999995 -0.024824261000000014 0.019013225990000007
                  CHANNELS 3 Yrotation Xrotation Zrotation
                  JOINT leftMiddleDistal
                  {
                    OFFSET 0.2354259489999998 -0.025005222000000327 0.0075590014499999705
                    CHANNELS 3 Yrotation Xrotation Zrotation
                    End Site
                    {
                      OFFSET 0.2354259489999998 -0.025005222000000327 0.0075590014499999705
                    }
                  }
                }
              }
              JOINT leftIndexProximal
              {
                OFFSET 0.8008594516999996 -0.09898495199999946 0.29463124239999994
                CHANNELS 3 Yrotation Xrotation Zrotation
                JOINT leftIndexIntermediate
                {
                  OFFSET 0.30524754480000016 -0.024632811499998963 0.02743047472
                  CHANNELS 3 Yrotation Xrotation Zrotation
                  JOINT leftIndexDistal
                  {
                    OFFSET 0.23067378950000017 -0.016876459159999913 0.008481502700000004
                    CHANNELS 3 Yrotation Xrotation Zrotation
                    End Site
                    {
                      OFFSET 0.23067378950000017 -0.016876459159999913 0.008481502700000004
                    }
                  }
                }
              }
              JOINT leftThumbProximal
              {
                OFFSET 0.25574326469999953 -0.12833321050000013 0.22385764169999997
                CHANNELS 3 Yrotation Xrotation Zrotation
                JOINT leftThumbIntermediate
                {
                  OFFSET 0.22804987480000094 -0.07138466829999968 0.273648441
                  CHANNELS 3 Yrotation Xrotation Zrotation
                  JOINT leftThumbDistal
                  {
                    OFFSET 0.13614857189999907 -0.033867001519998885 0.14238119169999996
                    CHANNELS 3 Yrotation Xrotation Zrotation
                    End Site
                    {
                      OFFSET 0.13614857189999907 -0.033867001519998885 0.14238119169999996
                    }
                  }
                }
              }
            }
          }
        }
      }
    }
  }
  JOINT rightUpperLeg
  {
    OFFSET -0.9749898906000001 -1.8495733739999998 0
    CHANNELS 3 Yrotation Xrotation Zrotation
    JOINT rightLowerLeg
    {
      OFFSET 0 -4.1566544686813165 0
      CHANNELS 3 Yrotation Xrotation Zrotation
      JOINT rightFoot
      {
        OFFSET 0.14539718599999998 -4.225553926 -0.3666210900000001
        CHANNELS 3 Yrotation Xrotation Zrotation
        JOINT rightToes
        {
          OFFSET 0.1706738473 -0.9584117400000015 1.0093348617
          CHANNELS 3 Yrotation Xrotation Zrotation
          End Site
          {
            OFFSET 0.1706738473 -0.9584117400000015 1.0093348617
          }
        }
      }
    }
  }
  JOINT leftUpperLeg
  {
    OFFSET 0.9749898906000001 -1.8495733739999998 0
    CHANNELS 3 Yrotation Xrotation Zrotation
    JOINT leftLowerLeg
    {
      OFFSET 0 -4.156653488267941 0
      CHANNELS 3 Yrotation Xrotation Zrotation
      JOINT leftFoot
      {
        OFFSET -0.14537357999999995 -4.225555399999999 -0.36661124279999996
        CHANNELS 3 Yrotation Xrotation Zrotation
        JOINT leftToes
        {
          OFFSET -0.17066467000000002 -0.9584157000000019 1.0093348617
          CHANNELS 3 Yrotation Xrotation Zrotation
          End Site
          {
            OFFSET -0.17066467000000002 -0.9584157000000019 1.0093348617
          }
        }
      }
    }
  }
}
MOTION
Frames: 4
Frame Time: 0.03333333333333333
0.5161017775535583 -0.4840391152661141 -0.34256216883659363 -4.408507294935623 -3.1231883521048482 -4.733212131452382 0.636247197593385 5.166974593659481 -0.4897149576407841 1.9112578464626935 20.749401911568224 -4.184106817625154 -3.92641873779106 5.082829218761215 -1.9597945951210503 -24.957547093646212 -5.845127394725426 13.932210331592998 0 0 0 0 0 0 0 0 0 -2.445791878356437 1.103198143173481 -5.082019466635072 8.081948470471335 8.883334461095227 81.89146071087843 95.05881356963316 0.5559458346581505 -1.4202147653744333 8.926652675135111 31.723334325963517 -21.43814341239542 1.9834985866088743 3.2452761077565273 32.5966900432188 6.582189082490228 -2.281607390260441 37.26826302227205 -0.05689525076138824 8.63450980036477e-7 0.000734946061701708 -4.61624441381373 2.1429365382949945 17.73534719748235 5.190589583850314 -2.485900428492331 48.55071479395606 -0.012898923753936413 1.3074994719180616e-8 0.00016662218132246036 -1.4027854710073555 -1.936000020354257 21.143763433914415 1.4659054994284801 -0.23308853232269347 18.321314630024492 -0.03689691684742937 5.988661320840165e-8 0.0004766170014904347 -6.578376013938308 -6.372837753404467 15.930921763782159 -0.18093573748129285 0.01795724463776782 6.411874638921494 -0.010099156622314856 -6.596802379750212e-9 0.00013045612070555345 6.375401667839772 5.833955850995349 14.22705863305369 -9.083650240933915 3.5960371373799664 0.31325302340241173 0.7310951881820206 -0.3230330002039053 0.16012442396985851 0.6004467989634239 0.21057163096101655 1.7494692058106158 -36.83061683640167 -7.32670684141485 -61.44053802625436 -97.41395330760724 0.8898242026692226 0.39966944330112264 1.733675444536433 48.85998401825555 19.48397113219065 4.932373583838587 2.7804082321784978 -38.10759829477914 -0.6134404525475645 0.024263824199939617 -4.339493968291251 -0.0076984544103127495 -0.0000018736548904084268 0.00009943815780259709 4.86138443820547 0.4563627942107022 -24.26863906713422 -2.314368770709309 -0.4886460878300929 -24.27998256859942 0.0000041258049479084875 0.00000351725705470748 -6.061851736281255e-7 2.0433787902006175 -0.3947484898960845 -15.029504087890311 -2.6757400335645465 -0.7305136461592643 -29.768359641981565 0.0023932930310715697 -4.2210899388330243e-7 -0.000030307664943619223 1.9749932228479243 -6.044746557040192 -10.520761353974914 0.13056090997214573 -0.05008743107958204 -17.344925960464085 -0.007600771534494231 -0.000005312656051066937 0.00009420691825183659 -12.683634055607431 2.5525487315365316 -7.158338530712257 11.389909652101293 5.785565557203566 -3.5658003899125656 -0.6435935619893486 -0.28038684121013985 -0.14791546001534703 -3.3595315480896475 -10.767815388556935 -1.84818250720907 -0.07066851264375734 27.64220471291863 0.9748747651063644 -6.857572136566868 -13.413224583559906 8.965320479307607 -0.10565060021174479 -0.282915082286618 0.26326748654909576 -1.2135135128953687 -15.51400291600502 8.064716194326842 -0.6050306188944846 34.17974822709793 -1.6197909046964545 8.686418970558943 -15.075658523943702 -3.970510965018603 -0.027044278585881217 -0.01736608806845591 0.030383862318928048
0.5216504335403442 -0.48058299954345784 -0.3373083770275116 -4.47702052563036 -3.111222084447925 -4.741247454896889 0.6334281273427361 5.147038963620456 -0.4826034484048564 1.906180356455639 20.669189485498205 -4.16310615122748 -3.9148939784678043 5.061189261410066 -1.8975471917973645 -24.8209798151397 -5.850479378649492 13.865266573797712 0 0 0 0 0 0 0 0 0 -2.418818235139979 1.0920003412674206 -5.018817684067779 8.000578245633255 8.86895028291022 81.92745438259429 94.95790375283617 0.5500199960337462 -1.4211990010780629 8.898407655518648 31.736367732068967 -21.436082335220878 2.0569421117888704 3.1886174891003707 32.72690984582998 6.58812577954718 -2.2867678565372183 37.313782115457556 -0.05689525076138824 8.63450980036477e-7 0.000734946061701708 -4.603302446481263 2.1448024860198696 17.884245596123666 5.204245633013253 -2.5015076765706903 48.72158664928157 -0.012898923753936413 1.3074994719180616e-8 0.00016662218132246036 -1.3813057030018216 -1.9476709780855939 21.367439803007922 1.4950158534752798 -0.2445561727331053 18.75993733775658 -0.03689691684742937 5.988661320840165e-8 0.0004766170014904347 -6.54723999645017 -6.362730750661234 16.186595850216907 -0.1862893902530402 0.01863428050366001 6.604316638122886 -0.010099156622314856 -6.596802379750212e-9 0.00013045612070555345 6.1290830041716085 5.827156225711672 14.144263854564414 -9.399966210800237 3.505044221683477 0.44577552102501833 0.7310951881820206 -0.3230330002039053 0.16012442396985851 0.5689502534806791 0.20063939138804993 1.6662291914258125 -36.62897252900123 -7.205416457031528 -61.57917397173272 -97.34694575034233 0.8836094803944226 0.4068367344191395 1.6334171153340546 48.759226361568835 19.46261082730001 4.840380178933166 2.714800769155938 -38.1822428189026 -0.6248068200464858 0.02366463179536318 -4.42560428663483 -0.0076984544103127495 -0.0000018736548904084268 0.00009943815780259709 4.849942258182331 0.4633818934493752 -24.491686513682662 -2.3192337796582314 -0.4908370044027077 -24.334244268168778 0.0000041258049479084875 0.00000351725705470748 -6.061851736281255e-7 2.0238002841737273 -0.40062819710741765 -15.188773036238803 -2.670668500469469 -0.7275321339632044 -29.704738635257712 0.0023932930310715697 -4.2210899388330243e-7 -0.000030307664943619223 1.997662111760531 -6.034433356976237 -10.903006691062146 0.13121730035424164 -0.04969977434150891 -17.47951112451839 -0.007600771534494231 -0.000005312656051066937 0.00009420691825183659 -12.308925132026165 2.584423095818195 -7.084894994285862 11.448794519781133 5.763522817727594 -3.56975477143793 -0.6435935619893486 -0.28038684121013985 -0.14791546001534703 -3.314576832130455 -10.68037118577599 -1.8716134880090605 -0.06956898487737263 27.460971661236567 0.9690038093572364 -6.840108437704866 -13.298452856484761 9.01930160905085 -0.10564435100271938 -0.2816263753698271 0.263266307904796 -1.1881644168293393 -15.439424542800545 8.029234259239235 -0.6002062695490875 34.07501712108101 -1.6124026624658687 8.746604236030466 -15.061179273170762 -3.9493260387863924 -0.026988007901430074 -0.01731971081506268 0.030321653575951922
0.5323433876037598 -0.47510700161865316 -0.3274957537651062 -4.606091826272603 -3.0940612656752386 -4.759581451461316 0.6267984453979748 5.112273225778246 -0.4665096699534386 1.8922136990803253 20.528955956156306 -4.114496640320204 -3.8915300547684146 5.017473558344041 -1.7737569543314662 -24.553595453398028 -5.862864834951261 13.751486954844465 0 0 0 0 0 0 0 0 0 -2.3655861824653246 1.0690818347242634 -4.889415971850119 7.85987699076354 8.830427031579154 81.94801590869346 94.7744272208087 0.5402789582955755 -1.4219479405629525 8.85400679449668 31.732376408036462 -21.420463432255687 2.2628092599350875 3.023988473687381 33.132710194790114 6.607053209642132 -2.3033202234976304 37.45891465867082 -0.05689525076138824 8.63450980036477e-7 0.000734946061701708 -4.534139081030571 2.141388204964356 18.36547909169162 5.255300047377591 -2.5605821997591933 49.36456419371064 -0.012898923753936413 1.3074994719180616e-8 0.00016662218132246036 -1.3138641323149707 -1.9862069865820748 22.172939840172532 1.5951720404873393 -0.28596447916295664 20.279630015965328 -0.03689691684742937 5.988661320840165e-8 0.0004766170014904347 -6.50423372769427 -6.311381392552153 17.023753408187314 -0.1962281370373495 0.019898325808957666 6.962112594088519 -0.010099156622314856 -6.596802379750212e-9 0.00013045612070555345 5.729561562365877 5.806712789282972 14.008833289609042 -10.265795654597616 3.261587061696731 0.817412304850258 0.7310951881820206 -0.3230330002039053 0.16012442396985851 0.5144520786961518 0.18324457614587508 1.5227972711021829 -36.28170282838578 -6.997326816267505 -61.82909673599732 -97.20423695120661 0.8725192058765023 0.42011553365605875 1.4254561320320587 48.48528302852498 19.39072131303508 4.709708550319479 2.6395573172938542 -38.45294470772285 -0.6441759787840188 0.022608662118712295 -4.572229482297918 -0.0076984544103127495 -0.0000018736548904084268 0.00009943815780259709 4.758511338967519 0.4577657490337261 -25.183630180884506 -2.3329347417531032 -0.49703173592343797 -24.486923174967615 0.0000041258049479084875 0.00000351725705470748 -6.061851736281255e-7 2.0077585067189534 -0.40621289564289187 -15.731990663825094 -2.660949718228391 -0.7218333793809095 -29.58349496658952 0.0023932930310715697 -4.2210899388330243e-7 -0.000030307664943619223 1.9914765730450263 -6.021113414323253 -11.83497404361995 0.13172188727751502 -0.049403814930375135 -17.58679193153627 -0.007600771534494231 -0.000005312656051066937 0.00009420691825183659 -11.608565295196394 2.5716740237842703 -6.907530945183182 11.776978540435632 5.6446476879144445 -3.6016183227671372 -0.6435935619893486 -0.28038684121013985 -0.14791546001534703 -3.2208679769020816 -10.527827148824702 -1.914150913984243 -0.06663982996397966 27.15353139933873 0.9595145683879363 -6.82047063605756 -13.098321548575036 9.118337477349415 -0.10563149420821634 -0.287779331198161 0.2632628739485775 -1.156263976850148 -15.31050638872645 7.9662553157781035 -0.5915973663885523 33.9141996753729 -1.6003722253255936 8.861726723109832 -15.052106370583948 -3.9116533981808024 -0.02685199776322231 -0.017218236811048625 0.03020442312894736
0.542951762676239 -0.4715707772534188 -0.3186022639274597 -4.7199543869661555 -3.0871294271504452 -4.785009109921969 0.6182592607475571 5.084750938986862 -0.4470845774622551 1.8708937101176226 20.41730985766745 -4.056182850320632 -3.876124590870438 4.9821890105840305 -1.6576761205622845 -24.346287712034336 -5.89281773233282 13.672527081095481 0 0 0 0 0 0 0 0 0 -2.3106391862353965 1.0452642191115165 -4.755349309747969 7.7421636421740825 8.7910602944223 81.89448359474687 94.62913441826932 0.5335092499193897 -1.421043088394084 8.830915434038747 31.688338698706893 -21.387534329598328 2.5033815309061245 2.820403210470926 33.67985216308331 6.632121314231586 -2.325381800773205 37.651480820609315 -0.05689525076138824 8.63450980036477e-7 0.000734946061701708 -4.4334361218337435 2.134153414454963 19.047331133393847 5.3375760501803935 -2.6586884184452892 50.41882217857063 -0.012898923753936413 1.3074994719180616e-8 0.00016662218132246036 -1.236586674144322 -2.0358168187404972 23.385642032868294 1.7493816557629926 -0.35597739565318287 22.654665960799303 -0.03689691684742937 5.988661320840165e-8 0.0004766170014904347 -6.496260552146843 -6.218603520574757 18.24516760955369 -0.20629049019734647 0.02128439239513272 7.324968352694212 -0.010099156622314856 -6.596802379750212e-9 0.00013045612070555345 5.68613959864321 5.774462129029218 13.980593727168257 -11.274001797233037 2.98888207410558 1.2655903052534792 0.7310951881820206 -0.3230330002039053 0.16012442396985851 0.4807620610577216 0.1725134167745693 1.434983355339324 -35.99593113650452 -6.879638782043214 -62.10018234196099 -97.00618615439863 0.8615982971789915 0.43328701269511727 1.2193213179989282 48.215266366178454 19.293189844766115 4.585607630642392 2.5906735423095593 -38.92349241557647 -0.6588046554722141 0.021797195230235118 -4.682921954419743 -0.0076984544103127495 -0.0000018736548904084268 0.00009943815780259709 4.700843365231115 0.48131847308434605 -26.09946374860579 -2.3523425833049814 -0.5058901902323437 -24.70342154099449 0.0000041258049479084875 0.00000351725705470748 -6.061851736281255e-7 2.000696496953965 -0.4089586478026417 -16.649483483923206 -2.6530503562736065 -0.7172411557891011 -29.48512228873378 0.0023932930310715697 -4.2210899388330243e-7 -0.000030307664943619223 1.935927824006493 -6.015990710618671 -12.961388810214844 0.13257995451604623 -0.04890742874873101 -17.765358741834305 -0.007600771534494231 -0.000005312656051066937 0.00009420691825183659 -10.986984438429495 2.385613492844576 -6.66189804463937 12.327980295887444 5.447860412108012 -3.662293158826643 -0.6435935619893486 -0.28038684121013985 -0.14791546001534703 -3.1260253572886074 -10.402187655146516 -1.950918145557683 -0.06270606166069423 26.919697179830052 0.9529453290224088 -6.81349760273197 -12.937217438366217 9.215870531563636 -0.10558921699866003 -0.30207521328308384 0.26325077035739763 -1.143089958040741 -15.209312875230896 7.916092626185935 -0.5844185465118892 33.822348570703774 -1.5922007978724328 8.974422403767354 -15.072250824615349 -3.8796613754847726 -0.026754224009373422 -0.017199929035101348 0.030016599615166284
